HIERARCHY
ROOT Hips
{
	OFFSET 0.00000 0.00000 0.00000
	CHANNELS 6 Xposition Yposition Zposition Zrotation Yrotation Xrotation 
	JOINT LHipJoint
	{
		OFFSET 0 0 0
		CHANNELS 3 Zrotation Yrotation Xrotation
		JOINT LeftUpLeg
		{
			OFFSET 1.62964 -1.40469 0.78906
			CHANNELS 3 Zrotation Yrotation Xrotation
			JOINT LeftLeg
			{
				OFFSET 2.29640 -6.30932 0.00000
				CHANNELS 3 Zrotation Yrotation Xrotation
				JOINT LeftFoot
				{
					OFFSET 2.29451 -6.30412 0.00000
					CHANNELS 3 Zrotation Yrotation Xrotation
					JOINT LeftToeBase
					{
						OFFSET 0.03611 -0.09921 1.56387
						CHANNELS 3 Zrotation Yrotation Xrotation
						End Site
						{
							OFFSET 0.00000 -0.00000 0.80291
						}
					}
				}
			}
		}
	}
	JOINT RHipJoint
	{
		OFFSET 0 0 0
		CHANNELS 3 Zrotation Yrotation Xrotation
		JOINT RightUpLeg
		{
			OFFSET -1.73712 -1.40469 0.78906
			CHANNELS 3 Zrotation Yrotation Xrotation
			JOINT RightLeg
			{
				OFFSET -2.28137 -6.26801 0.00000
				CHANNELS 3 Zrotation Yrotation Xrotation
				JOINT RightFoot
				{
					OFFSET -2.28681 -6.28298 0.00000
					CHANNELS 3 Zrotation Yrotation Xrotation
					JOINT RightToeBase
					{
						OFFSET -0.15927 -0.43759 1.61103
						CHANNELS 3 Zrotation Yrotation Xrotation
						End Site
						{
							OFFSET -0.00000 -0.00000 0.84630
						}
					}
				}
			}
		}
	}
	JOINT LowerBack
	{
		OFFSET 0 0 0
		CHANNELS 3 Zrotation Yrotation Xrotation
		JOINT Spine
		{
			OFFSET -0.04227 2.04338 -0.00225
			CHANNELS 3 Zrotation Yrotation Xrotation
			JOINT Spine1
			{
				OFFSET -0.02148 2.04482 -0.04273
				CHANNELS 3 Zrotation Yrotation Xrotation
				JOINT Neck
				{
					OFFSET 0 0 0
					CHANNELS 3 Zrotation Yrotation Xrotation
					JOINT Neck1
					{
						OFFSET 0.09180 1.44629 0.19359
						CHANNELS 3 Zrotation Yrotation Xrotation
						JOINT Head
						{
							OFFSET 0.00887 1.40645 0.14750
							CHANNELS 3 Zrotation Yrotation Xrotation
							End Site
							{
								OFFSET -0.00669 1.50671 0.03707
							}
						}
					}
				}
				JOINT LeftShoulder
				{
					OFFSET 0 0 0
					CHANNELS 3 Zrotation Yrotation Xrotation
					JOINT LeftArm
					{
						OFFSET 2.17674 1.86763 -0.06520
						CHANNELS 3 Zrotation Yrotation Xrotation
						JOINT LeftForeArm
						{
							OFFSET 4.65776 -0.00000 0.00000
							CHANNELS 3 Zrotation Yrotation Xrotation
							JOINT LeftHand
							{
								OFFSET 3.55539 -0.00000 0.00000
								CHANNELS 3 Zrotation Yrotation Xrotation
								JOINT LeftFingerBase
								{
									OFFSET 0 0 0
									CHANNELS 3 Zrotation Yrotation Xrotation
									JOINT LeftHandIndex1
									{
										OFFSET 0.70726 -0.00000 0.00000
										CHANNELS 3 Zrotation Yrotation Xrotation
										End Site
										{
											OFFSET 0.57022 -0.00000 0.00000
										}
									}
								}
								JOINT LThumb
								{
									OFFSET 0 0 0
									CHANNELS 3 Zrotation Yrotation Xrotation
									End Site
									{
										OFFSET 0.57892 -0.00000 0.57892
									}
								}
							}
						}
					}
				}
				JOINT RightShoulder
				{
					OFFSET 0 0 0
					CHANNELS 3 Zrotation Yrotation Xrotation
					JOINT RightArm
					{
						OFFSET -2.80694 1.55459 -0.32496
						CHANNELS 3 Zrotation Yrotation Xrotation
						JOINT RightForeArm
						{
							OFFSET -4.71925 -0.00000 -0.00000
							CHANNELS 3 Zrotation Yrotation Xrotation
							JOINT RightHand
							{
								OFFSET -3.56990 -0.00000 0.00000
								CHANNELS 3 Zrotation Yrotation Xrotation
								JOINT RightFingerBase
								{
									OFFSET 0 0 0
									CHANNELS 3 Zrotation Yrotation Xrotation
									JOINT RightHandIndex1
									{
										OFFSET -0.50776 -0.00000 0.00000
										CHANNELS 3 Zrotation Yrotation Xrotation
										End Site
										{
											OFFSET -0.40937 -0.00000 0.00000
										}
									}
								}
								JOINT RThumb
								{
									OFFSET 0 0 0
									CHANNELS 3 Zrotation Yrotation Xrotation
									End Site
									{
										OFFSET -0.41562 -0.00000 0.41562
									}
								}
							}
						}
					}
				}
			}
		}
	}
}
MOTION
Frames: 15
Frame Time: .0083333
9.1971 12.5301 31.1583 178.8790 3.8790 -134.3420 0.0000 0.0000 0.0000 -0.4440 -22.8242 -87.0171 20.6881 19.9886 92.0123 2.9712 -11.7579 -31.1186 5.8201 -14.2518 -44.2555 0.0000 0.0000 0.0000 0.1997 27.4108 -83.8528 -19.3506 -19.9899 88.1011 -6.6406 3.8408 -48.4765 -3.8399 11.9442 -35.5349 -4.5009 -0.7194 -1.6302 -1.5889 -0.8136 -0.8714 0.8778 -0.3620 0.0614 1.2144 -5.6716 -1.0696 6.4707 -3.3684 -28.2637 2.0036 -0.8857 -8.5112 0.0000 0.0000 0.0000 -76.0150 -3.1370 34.4296 19.4203 -29.9375 -5.2389 -0.0000 0.0000 -2.9539 29.0663 -13.9474 -7.6305 -7.1250 0.0000 -0.0000 1.1031 14.1199 -0.8008 0.0000 0.0000 0.0000 88.0453 5.4140 17.5963 -16.8348 26.6395 -4.0130 0.0000 -0.0000 -0.1445 -16.0283 -48.3097 12.1079 7.1250 -0.0000 -0.0000 -11.0838 11.9893 -171.2919
9.1853 12.6094 31.0455 178.8380 4.0828 -135.2980 0.0000 0.0000 0.0000 -1.2183 -23.1605 -84.7053 20.3513 19.9970 91.0272 2.8767 -11.8197 -30.6110 5.8919 -14.3227 -44.5461 0.0000 0.0000 0.0000 0.8126 27.5372 -81.6012 -19.0882 -19.9801 87.3333 -6.6494 3.9037 -48.4994 -3.6938 11.7414 -34.8233 -4.5245 -0.6718 -1.3902 -1.6851 -0.7642 -1.0118 0.7967 -0.3279 -0.2206 1.1751 -5.5710 -0.5035 6.5243 -3.3209 -28.0065 2.0393 -0.9267 -8.5212 -0.0000 -0.0000 0.0000 -75.6815 -3.7992 36.4534 20.7255 -31.5065 -5.9058 -0.0000 0.0000 -4.7884 28.4928 -13.9474 -7.4537 -7.1250 0.0000 -0.0000 0.7149 14.2014 -0.5177 -0.0000 -0.0000 0.0000 87.8240 5.5410 21.0376 -19.2212 29.6926 -5.1400 0.0000 -0.0000 -3.5867 -14.5364 -49.7558 11.1953 7.1250 -0.0000 -0.0000 -11.8953 11.0077 -170.3798
9.1747 12.6952 30.9384 178.7020 4.1684 -135.7620 0.0000 0.0000 0.0000 -1.7919 -23.6311 -83.0263 20.0394 20.0000 90.1151 2.8026 -11.8102 -30.2062 5.8362 -14.2677 -44.3206 0.0000 0.0000 0.0000 1.0090 27.6022 -80.1074 -18.8548 -19.9685 86.6501 -6.6082 4.1368 -48.2989 -3.4776 11.4307 -33.7466 -4.4979 -0.7902 -1.7549 -1.7110 -0.8918 -0.8396 0.7476 -0.4006 0.1660 1.1342 -5.5726 -1.6100 6.5421 -3.3342 -27.4919 2.0181 -0.8957 -8.1419 0.0000 0.0000 0.0000 -75.2994 -5.3874 38.2720 22.2203 -33.2251 -6.7061 -0.0000 0.0000 -6.6450 29.1093 -13.6621 -7.4923 -7.1250 0.0000 -0.0000 1.1603 14.4347 -0.8346 0.0000 0.0000 0.0000 87.2905 6.7092 24.6143 -21.7534 32.6972 -6.4521 0.0000 -0.0000 -6.9018 -17.3721 -49.3150 13.3458 7.1250 -0.0000 -0.0000 -10.5962 10.7024 -171.4038
9.1667 12.7972 30.8293 178.6070 4.1752 -136.2750 0.0000 0.0000 0.0000 -2.4255 -24.0096 -81.2160 19.6978 19.9978 89.1165 2.7399 -11.7898 -29.8600 5.6770 -14.1079 -43.6712 0.0000 0.0000 0.0000 1.2621 27.7565 -78.5730 -18.6335 -19.9552 86.0017 -6.5582 4.3001 -48.0760 -3.4197 11.3453 -33.4534 -4.3482 -0.7818 -2.0436 -1.8284 -0.8647 -1.1801 0.5430 -0.3741 -0.0268 1.0376 -5.3341 -0.8027 6.4507 -3.1528 -27.1934 2.0115 -0.8706 -8.1861 0.0000 -0.0000 0.0000 -74.5215 -5.4916 40.4040 24.2848 -35.4640 -7.8712 -0.0000 0.0000 -7.4538 30.1361 -14.3381 -8.1809 -7.1250 0.0000 -0.0000 1.7841 13.5204 -1.3182 0.0000 -0.0000 0.0000 86.7642 6.5232 27.5173 -24.7315 35.9283 -8.1318 0.0000 -0.0000 -9.1357 -17.4306 -48.4950 13.2316 7.1250 -0.0000 -0.0000 -10.4691 11.4558 -171.6751
9.1628 12.9168 30.7144 178.3660 4.1736 -136.9450 0.0000 0.0000 0.0000 -3.4099 -24.2845 -79.2036 19.3817 19.9908 88.1918 2.6810 -11.7735 -29.5319 5.4987 -13.9243 -42.9352 0.0000 0.0000 0.0000 2.3002 27.1376 -75.5541 -17.8413 -19.8879 83.6771 -6.3650 3.9000 -47.3857 -3.6571 11.6896 -34.6426 -4.4865 -0.8634 -2.1096 -1.7815 -0.9683 -1.4009 0.6666 -0.4157 -0.2092 0.7987 -4.9695 -1.2190 6.2639 -2.8573 -26.2464 1.9532 -0.7339 -7.7924 0.0000 0.0000 0.0000 -74.0005 -6.6380 42.2214 25.9492 -37.1585 -8.8570 -0.0000 0.0000 -8.4099 28.8270 -13.8907 -7.5267 -7.1250 0.0000 -0.0000 0.9467 14.2178 -0.6853 0.0000 0.0000 0.0000 85.8361 6.7282 30.3490 -27.8624 38.9893 -10.0370 0.0000 -0.0000 -11.0145 -16.3425 -48.6188 12.4083 7.1250 -0.0000 -0.0000 -10.9743 11.6198 -171.2958
9.1622 13.0493 30.5896 178.1380 4.1515 -137.6530 0.0000 0.0000 0.0000 -4.4756 -24.5533 -76.6997 18.8331 19.9673 86.5864 2.5902 -11.5866 -29.0128 5.4023 -13.8230 -42.5329 0.0000 0.0000 0.0000 2.7716 27.0495 -73.3808 -17.4856 -19.8477 82.6305 -6.2423 3.8410 -46.9089 -3.8343 11.9366 -35.5081 -4.6384 -0.9085 -2.2414 -1.7714 -1.0159 -1.6143 0.7602 -0.4285 -0.3497 0.6434 -4.7642 -1.6294 6.2995 -2.7055 -25.3967 1.9666 -0.6826 -7.4324 -0.0000 0.0000 0.0000 -73.2551 -7.3973 44.2253 27.8236 -38.9533 -10.0126 -0.0000 0.0000 -8.0130 28.5152 -13.7224 -7.3438 -7.1250 0.0000 -0.0000 0.7513 14.4501 -0.5401 -0.0000 0.0000 0.0000 84.9602 7.0367 32.5710 -31.2276 41.9227 -12.2217 0.0000 -0.0000 -11.7073 -15.6925 -50.1539 12.1723 7.1250 -0.0000 -0.0000 -11.4296 10.3476 -170.6156
9.1574 13.1941 30.4467 178.0400 4.1743 -138.4190 0.0000 0.0000 0.0000 -5.6160 -24.6546 -73.8644 18.1831 19.9207 84.6811 2.5104 -11.3257 -28.5453 5.3236 -13.7392 -42.2025 0.0000 0.0000 0.0000 3.4792 26.8844 -70.9555 -17.0683 -19.7927 81.3998 -6.0925 3.8163 -46.3127 -3.9776 12.1305 -36.1953 -4.5917 -0.9156 -2.4495 -1.8065 -1.0104 -1.8898 0.6972 -0.4134 -0.5178 0.5024 -4.5481 -1.9097 6.3497 -2.5720 -24.4274 1.9865 -0.6576 -7.0598 0.0000 -0.0000 0.0000 -72.2958 -7.9061 46.1005 29.9806 -40.8767 -11.3969 -0.0000 0.0000 -7.6192 28.2249 -13.3603 -7.0703 -7.1250 0.0000 -0.0000 0.5871 14.8948 -0.4165 0.0000 -0.0000 0.0000 84.1368 7.1873 34.5715 -34.5980 44.5229 -14.5308 0.0000 -0.0000 -11.6079 -11.6499 -50.8257 9.0811 7.1250 -0.0000 -0.0000 -13.2378 10.7000 -169.1489
9.1511 13.3462 30.2898 177.8500 4.2554 -139.0770 0.0000 0.0000 0.0000 -6.9331 -24.6331 -71.0742 17.4778 19.8468 82.6074 2.3974 -10.9112 -27.8707 5.2767 -13.6887 -42.0046 0.0000 0.0000 0.0000 4.1424 26.5331 -68.5396 -16.5058 -19.7047 79.7352 -5.8418 3.3215 -45.3859 -4.1121 12.3082 -36.8310 -4.7421 -0.9503 -3.5263 -1.7657 -0.9727 -1.8233 0.8084 -0.4033 0.1546 0.2447 -4.2816 -1.8467 6.3434 -2.2961 -24.0172 2.0123 -0.5326 -6.9376 -0.0000 -0.0000 0.0000 -71.4144 -8.9361 47.7405 32.1069 -42.6322 -12.8131 -0.0000 0.0000 -6.4674 28.5634 -13.0116 -6.9878 -7.1250 0.0000 -0.0000 0.8497 15.2402 -0.5965 -0.0000 -0.0000 0.0000 83.0269 7.7713 36.2643 -38.0017 46.8404 -16.9668 0.0000 -0.0000 -10.5840 -15.4826 -50.6916 12.0970 7.1250 -0.0000 -0.0000 -11.5788 9.8988 -170.3803
9.1435 13.5093 30.1244 177.6580 4.3369 -139.6270 0.0000 0.0000 0.0000 -8.2828 -24.3697 -68.4456 16.7527 19.7453 80.4666 2.2519 -10.2871 -26.9793 5.2949 -13.7083 -42.0815 0.0000 0.0000 0.0000 4.6972 26.1484 -66.2176 -15.8609 -19.5842 77.8170 -5.5298 3.1746 -44.1199 -3.8980 12.0235 -35.8151 -5.0138 -0.9777 -4.7464 -1.6009 -0.9112 -1.8061 1.1152 -0.3820 0.8577 -0.1128 -3.9556 -1.7529 6.3043 -1.9246 -23.7224 2.0412 -0.3446 -6.8616 -0.0000 -0.0000 0.0000 -70.7795 -10.0314 49.0747 33.9831 -44.0722 -14.1013 -0.0000 0.0000 -5.3783 28.6412 -13.4289 -7.2286 -7.1250 0.0000 -0.0000 0.8645 14.7617 -0.6157 -0.0000 -0.0000 0.0000 81.6120 8.4131 37.4929 -41.5913 48.9849 -19.6316 0.0000 -0.0000 -9.8667 -15.3177 -50.2735 11.8959 7.1250 -0.0000 -0.0000 -11.6051 10.3299 -170.4610
9.1447 13.7405 29.9308 177.6930 4.2847 -141.9110 0.0000 0.0000 0.0000 -10.2956 -23.3503 -63.2715 15.7441 19.5601 77.4683 2.0856 -9.5041 -25.9310 5.3437 -13.7607 -42.2872 0.0000 0.0000 0.0000 6.7361 25.5527 -61.0455 -14.8886 -19.3617 74.9009 -5.1789 2.9905 -42.6621 -4.0382 12.2110 -36.4826 -4.8131 -0.8992 -3.6179 -1.6234 -0.9037 -1.6935 0.9947 -0.3786 0.3389 -0.2404 -3.5896 -1.7180 6.3207 -1.5945 -22.8249 2.0468 -0.2338 -6.5836 -0.0000 -0.0000 0.0000 -69.6128 -10.5028 50.2482 36.0642 -45.5572 -15.5683 -0.0000 0.0000 -4.2334 29.6086 -13.7866 -7.7123 -7.1250 0.0000 -0.0000 1.4863 14.2229 -1.0759 -0.0000 -0.0000 0.0000 80.6283 8.5913 38.9127 -45.2032 50.8677 -22.3963 0.0000 -0.0000 -9.0366 -15.2347 -50.6976 11.9006 7.1250 -0.0000 -0.0000 -11.6856 9.9550 -170.3012
9.1495 13.9845 29.7263 177.8860 4.3076 -144.0060 0.0000 0.0000 0.0000 -11.9733 -21.9391 -58.4150 14.7008 19.3130 74.3337 1.8453 -9.0065 -24.3588 5.3836 -13.8032 -42.4546 0.0000 0.0000 0.0000 8.7730 24.8541 -56.0698 -13.9206 -19.0898 71.9617 -4.8141 2.7415 -41.1117 -4.5622 12.8731 -38.8953 -4.6765 -0.7703 -3.1432 -1.5466 -0.7783 -1.3877 1.0059 -0.3317 0.3800 -0.4329 -3.2981 -2.0531 6.3020 -1.3968 -21.7037 2.0528 -0.1682 -6.1685 0.0000 -0.0000 0.0000 -68.4626 -11.2604 51.2573 38.1752 -46.9509 -17.0935 -0.0000 0.0000 -3.0371 30.0847 -13.9977 -7.9768 -7.1250 0.0000 -0.0000 1.7860 13.9139 -1.3048 0.0000 -0.0000 0.0000 79.4132 8.9492 40.1683 -49.0181 52.5917 -25.3921 0.0000 -0.0000 -8.4881 -15.1934 -50.7051 11.8690 7.1250 -0.0000 -0.0000 -11.7040 9.9583 -170.2860
9.1487 14.2293 29.4867 178.0040 4.5579 -146.2040 0.0000 0.0000 0.0000 -13.8915 -20.1902 -53.2035 13.5259 18.9639 70.7513 1.5500 -8.4356 -22.2904 5.3292 -13.7452 -42.2264 0.0000 0.0000 0.0000 10.6211 23.9321 -50.8182 -12.8588 -18.7306 68.6863 -4.3877 3.0842 -39.0939 -4.6933 13.0299 -39.4805 -4.5058 -0.6301 -1.9440 -1.6226 -0.6809 -1.7965 0.8495 -0.2561 -0.7195 -0.5890 -2.7942 -3.3867 6.2920 -1.2398 -18.4138 2.0359 -0.1792 -4.9123 -0.0000 -0.0000 0.0000 -67.2503 -10.5972 52.4544 40.3278 -48.2629 -18.6835 -0.0000 0.0000 -1.7039 31.0986 -14.2205 -8.4287 -7.1250 0.0000 -0.0000 2.4437 13.5045 -1.8071 -0.0000 -0.0000 0.0000 78.4077 8.0285 41.6198 -52.8447 54.0803 -28.4623 0.0000 -0.0000 -8.0368 -15.1833 -50.6329 11.8490 7.1250 -0.0000 -0.0000 -11.7009 10.0282 -170.3056
9.1424 14.4661 29.2563 178.0200 4.5453 -147.0130 0.0000 0.0000 0.0000 -15.0379 -18.8699 -50.0668 12.4536 18.5759 67.4194 1.2004 -7.6684 -19.5830 5.1844 -13.5885 -41.6133 0.0000 0.0000 0.0000 11.7050 22.7169 -47.5316 -11.7997 -18.3047 65.3524 -3.8531 3.3387 -36.4737 -4.6090 12.9295 -39.1050 -4.1744 -0.6590 -3.1428 -1.7094 -0.6403 -1.9738 0.5662 -0.2369 -0.2360 -0.6469 -2.5163 -3.5013 6.3642 -1.1408 -16.7859 2.0555 -0.1998 -4.3940 0.0000 -0.0000 0.0000 -66.0548 -10.8620 53.1960 42.1074 -49.2701 -20.0219 -0.0000 0.0000 -0.8696 30.7753 -14.8015 -8.6508 -7.1250 0.0000 -0.0000 2.1605 12.8937 -1.6251 0.0000 -0.0000 0.0000 77.4463 8.1053 42.7217 -56.1224 55.1849 -31.1355 0.0000 -0.0000 -7.8689 -16.1377 -50.8333 12.6441 7.1250 -0.0000 -0.0000 -11.3145 9.6019 -170.5400
9.1414 14.7200 29.0297 178.0370 4.4271 -147.3160 0.0000 0.0000 0.0000 -15.7991 -17.6656 -47.6481 11.4698 18.1574 64.2982 0.8819 -6.9006 -16.7667 5.0521 -13.4423 -41.0474 0.0000 0.0000 0.0000 12.5237 21.4722 -44.9720 -10.7414 -17.8062 61.9388 -3.2670 2.9365 -33.5469 -4.7546 13.1020 -39.7515 -3.8354 -0.7232 -4.6751 -1.7998 -0.6241 -2.3251 0.2721 -0.2188 0.2547 -0.2935 -2.2669 -3.8251 5.8925 -1.1652 -14.7111 2.0225 -0.2487 -4.1243 0.0000 -0.0000 0.0000 -64.9193 -11.0227 53.8593 43.8739 -50.2047 -21.3700 -0.0000 0.0000 -0.0127 31.0619 -15.3266 -9.0461 -7.1250 0.0000 -0.0000 2.2896 12.2487 -1.7532 0.0000 -0.0000 0.0000 76.5069 7.9985 43.6711 -59.4671 56.1662 -33.8980 0.0000 -0.0000 -8.0054 -17.7060 -51.4547 14.0198 7.1250 -0.0000 -0.0000 -10.7326 8.6226 -170.8311
9.1467 14.9899 28.8038 177.9450 4.2895 -147.2100 0.0000 0.0000 0.0000 -16.3934 -16.4518 -45.8260 10.4375 17.6486 60.9407 0.5654 -5.9555 -13.4258 5.2608 -13.6716 -41.9376 0.0000 0.0000 0.0000 12.9279 20.4498 -43.0526 -9.7981 -17.2948 58.8116 -2.6882 2.6002 -30.3859 -4.7913 13.1448 -39.9130 -3.8340 -0.8353 -6.7603 -1.7820 -0.6184 -2.6053 0.2716 -0.2036 1.1275 -0.2906 -2.1352 -3.9128 5.8868 -1.1626 -13.6517 1.9999 -0.2867 -3.7263 0.0000 -0.0000 0.0000 -64.0025 -11.2922 54.3197 45.6505 -51.0832 -22.7437 -0.0000 -0.0000 0.6577 31.5313 -15.5059 -9.3150 -7.1250 0.0000 -0.0000 2.5787 11.9640 -1.9902 0.0000 -0.0000 0.0000 75.3250 7.7961 44.4092 -63.1318 57.0883 -36.9589 0.0000 -0.0000 -8.4065 -16.6850 -51.5666 13.2130 7.1250 -0.0000 -0.0000 -11.1728 8.7814 -170.4761
